<svg width="32" height="24" viewBox="0 0 32 24" fill="none" xmlns="http://www.w3.org/2000/svg">
<g clip-path="url(#clip0_1660_1562)">
<rect width="32" height="24" fill="white"/>
<path fill-rule="evenodd" clip-rule="evenodd" d="M0 0V24H32V0H0Z" fill="#F7FCFF"/>
<mask id="mask0_1660_1562" style="mask-type:luminance" maskUnits="userSpaceOnUse" x="0" y="0" width="32" height="24">
<path fill-rule="evenodd" clip-rule="evenodd" d="M0 0V24H32V0H0Z" fill="white"/>
</mask>
<g mask="url(#mask0_1660_1562)">
<path fill-rule="evenodd" clip-rule="evenodd" d="M16 18.2195C19.2027 18.2195 21.799 15.4622 21.799 12.061C21.799 8.65971 19.2027 5.90244 16 5.90244C12.7973 5.90244 10.201 8.65971 10.201 12.061C10.201 15.4622 12.7973 18.2195 16 18.2195Z" fill="#3D58DB"/>
<mask id="mask1_1660_1562" style="mask-type:luminance" maskUnits="userSpaceOnUse" x="10" y="5" width="12" height="14">
<path fill-rule="evenodd" clip-rule="evenodd" d="M16 18.2195C19.2027 18.2195 21.799 15.4622 21.799 12.061C21.799 8.65971 19.2027 5.90244 16 5.90244C12.7973 5.90244 10.201 8.65971 10.201 12.061C10.201 15.4622 12.7973 18.2195 16 18.2195Z" fill="white"/>
</mask>
<g mask="url(#mask1_1660_1562)">
<path fill-rule="evenodd" clip-rule="evenodd" d="M22.0019 12.5327C22.0019 12.5327 21.6764 9.62879 19.2657 9.47114C16.8551 9.3135 16.2051 11.6007 16.066 12.2067C15.9269 12.8127 15.5748 14.4292 13.0366 14.4292C10.4985 14.4292 10.2695 10.3187 10.2695 10.3187V5.47191H22.0019V12.5327Z" fill="#E31D1C"/>
</g>
<path fill-rule="evenodd" clip-rule="evenodd" d="M7.29935 2.05217L8.21432 2.8797L3.97406 7.8316L3.0591 7.00408L7.29935 2.05217ZM8.80834 3.39133L9.72331 4.21886L5.63505 9.09902L4.72008 8.2715L8.80834 3.39133ZM11.2254 5.57451L10.3104 4.74699L6.2108 9.66419L7.12576 10.4917L11.2254 5.57451Z" fill="#272727"/>
<path fill-rule="evenodd" clip-rule="evenodd" d="M25.3638 1.70519L24.4486 2.52962L26.036 4.39245L26.9512 3.56802L25.3638 1.70519ZM28.1854 5.13182L27.2702 5.95625L28.8576 7.81909L29.7728 6.99466L28.1854 5.13182ZM21.428 5.2128L22.3432 4.38837L23.9306 6.25121L23.0154 7.07564L21.428 5.2128ZM25.1648 7.81501L24.2496 8.63944L25.837 10.5023L26.7522 9.67785L25.1648 7.81501ZM22.9956 3.8312L23.9107 3.00677L28.3293 8.38763L27.4142 9.21206L22.9956 3.8312Z" fill="#272727"/>
<path fill-rule="evenodd" clip-rule="evenodd" d="M26.0549 14.2431L25.1321 13.4155L23.5313 15.2856L24.4541 16.1132L26.0549 14.2431ZM23.3636 17.5341L22.4408 16.7065L20.84 18.5766L21.7628 19.4042L23.3636 17.5341ZM28.0465 16.0328L28.9694 16.8605L27.3686 18.7306L26.4457 17.9029L28.0465 16.0328ZM26.4097 20.2278L25.4868 19.4001L23.886 21.2702L24.8089 22.0979L26.4097 20.2278ZM23.9665 17.978L24.8894 18.8057L23.2184 20.8026L22.2956 19.975L23.9665 17.978ZM27.6308 15.4782L26.708 14.6506L25.037 16.6475L25.9599 17.4752L27.6308 15.4782Z" fill="#272727"/>
<path fill-rule="evenodd" clip-rule="evenodd" d="M6.40656 14.8899L7.32177 14.0645L11.4064 18.7449L10.4912 19.5703L6.40656 14.8899ZM7.35936 18.9835L8.27457 18.1582L9.99987 20.0538L9.08467 20.8791L7.35936 18.9835ZM4.30943 16.6908L3.39422 17.5161L7.50002 22.2595L8.41523 21.4342L4.30943 16.6908ZM4.96061 16.1522L5.87581 15.3269L7.37148 17.0807L6.45628 17.9061L4.96061 16.1522Z" fill="#272727"/>
</g>
</g>
<defs>
<clipPath id="clip0_1660_1562">
<rect width="32" height="24" fill="white"/>
</clipPath>
</defs>
</svg>
