<svg width="32" height="24" viewBox="0 0 32 24" fill="none" xmlns="http://www.w3.org/2000/svg">
<g clip-path="url(#clip0_1662_635)">
<rect width="32" height="24" fill="white"/>
<path fill-rule="evenodd" clip-rule="evenodd" d="M0 0H32V24H0V0Z" fill="#F7FCFF"/>
<path fill-rule="evenodd" clip-rule="evenodd" d="M0 14.6667V16.6667H32V14.6667H0Z" fill="#E31D1C"/>
<path fill-rule="evenodd" clip-rule="evenodd" d="M0 18.3333V20.3333H32V18.3333H0Z" fill="#E31D1C"/>
<path fill-rule="evenodd" clip-rule="evenodd" d="M0 7.33333V9.33333H32V7.33333H0Z" fill="#E31D1C"/>
<path fill-rule="evenodd" clip-rule="evenodd" d="M0 22V24H32V22H0Z" fill="#E31D1C"/>
<path fill-rule="evenodd" clip-rule="evenodd" d="M0 11V13H32V11H0Z" fill="#E31D1C"/>
<path fill-rule="evenodd" clip-rule="evenodd" d="M0 0V2H32V0H0Z" fill="#E31D1C"/>
<path fill-rule="evenodd" clip-rule="evenodd" d="M0 3.66667V5.66667H32V3.66667H0Z" fill="#E31D1C"/>
<rect width="20" height="13" fill="#2E42A5"/>
<path fill-rule="evenodd" clip-rule="evenodd" d="M1.72209 2.93868L0.996209 3.44756L1.24127 2.54195L0.596558 1.96804H1.43864L1.72107 1.22897L2.05225 1.96804H2.7701L2.20607 2.54195L2.42443 3.44756L1.72209 2.93868ZM5.72209 2.93868L4.99621 3.44756L5.24127 2.54195L4.59656 1.96804H5.43864L5.72107 1.22897L6.05225 1.96804H6.7701L6.20607 2.54195L6.42443 3.44756L5.72209 2.93868ZM8.99621 3.44756L9.72209 2.93868L10.4244 3.44756L10.2061 2.54195L10.7701 1.96804H10.0522L9.72107 1.22897L9.43864 1.96804H8.59656L9.24127 2.54195L8.99621 3.44756ZM13.7221 2.93868L12.9962 3.44756L13.2413 2.54195L12.5966 1.96804H13.4386L13.7211 1.22897L14.0522 1.96804H14.7701L14.2061 2.54195L14.4244 3.44756L13.7221 2.93868ZM0.996209 7.44756L1.72209 6.93867L2.42443 7.44756L2.20607 6.54195L2.7701 5.96804H2.05225L1.72107 5.22897L1.43864 5.96804H0.596558L1.24127 6.54195L0.996209 7.44756ZM5.72209 6.93867L4.99621 7.44756L5.24127 6.54195L4.59656 5.96804H5.43864L5.72107 5.22897L6.05225 5.96804H6.7701L6.20607 6.54195L6.42443 7.44756L5.72209 6.93867ZM8.99621 7.44756L9.72209 6.93867L10.4244 7.44756L10.2061 6.54195L10.7701 5.96804H10.0522L9.72107 5.22897L9.43864 5.96804H8.59656L9.24127 6.54195L8.99621 7.44756ZM13.7221 6.93867L12.9962 7.44756L13.2413 6.54195L12.5966 5.96804H13.4386L13.7211 5.22897L14.0522 5.96804H14.7701L14.2061 6.54195L14.4244 7.44756L13.7221 6.93867ZM0.996209 11.4476L1.72209 10.9387L2.42443 11.4476L2.20607 10.542L2.7701 9.96804H2.05225L1.72107 9.22897L1.43864 9.96804H0.596558L1.24127 10.542L0.996209 11.4476ZM5.72209 10.9387L4.99621 11.4476L5.24127 10.542L4.59656 9.96804H5.43864L5.72107 9.22897L6.05225 9.96804H6.7701L6.20607 10.542L6.42443 11.4476L5.72209 10.9387ZM8.99621 11.4476L9.72209 10.9387L10.4244 11.4476L10.2061 10.542L10.7701 9.96804H10.0522L9.72107 9.22897L9.43864 9.96804H8.59656L9.24127 10.542L8.99621 11.4476ZM13.7221 10.9387L12.9962 11.4476L13.2413 10.542L12.5966 9.96804H13.4386L13.7211 9.22897L14.0522 9.96804H14.7701L14.2061 10.542L14.4244 11.4476L13.7221 10.9387ZM16.9962 3.44756L17.7221 2.93868L18.4244 3.44756L18.2061 2.54195L18.7701 1.96804H18.0522L17.7211 1.22897L17.4386 1.96804H16.5966L17.2413 2.54195L16.9962 3.44756ZM17.7221 6.93867L16.9962 7.44756L17.2413 6.54195L16.5966 5.96804H17.4386L17.7211 5.22897L18.0522 5.96804H18.7701L18.2061 6.54195L18.4244 7.44756L17.7221 6.93867ZM16.9962 11.4476L17.7221 10.9387L18.4244 11.4476L18.2061 10.542L18.7701 9.96804H18.0522L17.7211 9.22897L17.4386 9.96804H16.5966L17.2413 10.542L16.9962 11.4476ZM3.72209 4.93867L2.99621 5.44756L3.24127 4.54195L2.59656 3.96804H3.43864L3.72107 3.22897L4.05225 3.96804H4.7701L4.20607 4.54195L4.42443 5.44756L3.72209 4.93867ZM6.99621 5.44756L7.72209 4.93867L8.42443 5.44756L8.20607 4.54195L8.7701 3.96804H8.05225L7.72107 3.22897L7.43864 3.96804H6.59656L7.24127 4.54195L6.99621 5.44756ZM11.7221 4.93867L10.9962 5.44756L11.2413 4.54195L10.5966 3.96804H11.4386L11.7211 3.22897L12.0522 3.96804H12.7701L12.2061 4.54195L12.4244 5.44756L11.7221 4.93867ZM2.99621 9.44756L3.72209 8.93867L4.42443 9.44756L4.20607 8.54195L4.7701 7.96804H4.05225L3.72107 7.22897L3.43864 7.96804H2.59656L3.24127 8.54195L2.99621 9.44756ZM7.72209 8.93867L6.99621 9.44756L7.24127 8.54195L6.59656 7.96804H7.43864L7.72107 7.22897L8.05225 7.96804H8.7701L8.20607 8.54195L8.42443 9.44756L7.72209 8.93867ZM10.9962 9.44756L11.7221 8.93867L12.4244 9.44756L12.2061 8.54195L12.7701 7.96804H12.0522L11.7211 7.22897L11.4386 7.96804H10.5966L11.2413 8.54195L10.9962 9.44756ZM15.7221 4.93867L14.9962 5.44756L15.2413 4.54195L14.5966 3.96804H15.4386L15.7211 3.22897L16.0522 3.96804H16.7701L16.2061 4.54195L16.4244 5.44756L15.7221 4.93867ZM14.9962 9.44756L15.7221 8.93867L16.4244 9.44756L16.2061 8.54195L16.7701 7.96804H16.0522L15.7211 7.22897L15.4386 7.96804H14.5966L15.2413 8.54195L14.9962 9.44756Z" fill="#F7FCFF"/>
</g>
<defs>
<clipPath id="clip0_1662_635">
<rect width="32" height="24" fill="white"/>
</clipPath>
</defs>
</svg>
